# xmcd
#
# Track frame offsets: 
#        150
#        26606
#        52671
#        84204
#        144622
#        196097
#        235750
#        299074
#
# Disc length: 4532 seconds
#
# Revision: 3
# Processed by: cddbd v1.5.2PL0 Copyright (c) Steve Scherf et al.
# Submitted via: ExactAudioCopy v0.99pb5
#
DISCID=6411b208
DTITLE=SFJazz Collective - SFJAZZ Collective 2
DYEAR=2005
DGENRE=Jazz
TTITLE0=Moment's Notice (John Coltrane)
TTITLE1=Naima (John Coltrane)
TTITLE2=Scrambled Eggs (Nicholas Payton)
TTITLE3=Half Full (Joshua Redman)
TTITLE4=2 And 2 (Miguel Zenon)
TTITLE5=Crescent (John Coltrane)
TTITLE6=Africa (John Coltrane)
TTITLE7=Development (Eric Harland)
EXTD=YEAR: 2005
EXTT0=
EXTT1=
EXTT2=
EXTT3=
EXTT4=
EXTT5=
EXTT6=
EXTT7=
PLAYORDER=
